<?xml version="1.0" standalone="no"?><!DOCTYPE svg PUBLIC "-//W3C//DTD SVG 1.1//EN" "http://www.w3.org/Graphics/SVG/1.1/DTD/svg11.dtd"><svg t="1629970048004" class="icon" viewBox="0 0 1264 1024" version="1.1" xmlns="http://www.w3.org/2000/svg" p-id="1300" xmlns:xlink="http://www.w3.org/1999/xlink" width="246.875" height="200"><defs><style type="text/css"></style></defs><path d="M617.532235 735.713882A235.941647 235.941647 0 0 1 381.891765 500.073412c0-129.927529 105.712941-235.640471 235.64047-235.640471s235.640471 105.712941 235.640471 235.640471a235.941647 235.941647 0 0 1-235.640471 235.64047z m0-380.928A145.468235 145.468235 0 0 0 472.244706 500.073412c0 80.112941 65.174588 145.287529 145.287529 145.287529s145.287529-65.174588 145.28753-145.287529a145.468235 145.468235 0 0 0-145.28753-145.28753z" fill="#EAC829" p-id="1301"></path><path d="M617.532235 985.088C283.768471 985.088 15.058824 719.751529 15.058824 500.073412 15.058824 280.395294 283.768471 15.058824 617.532235 15.058824c333.703529 0 602.473412 265.336471 602.473412 485.014588 0 219.617882-268.769882 485.014588-602.473412 485.014588z m0-879.676235c-275.817412 0-512.120471 217.027765-512.12047 394.661647s236.303059 394.661647 512.12047 394.661647c275.817412 0 512.120471-217.027765 512.120471-394.661647S893.349647 105.411765 617.532235 105.411765z" fill="#1717C5" p-id="1302"></path></svg>