<?xml version="1.0" standalone="no"?><!DOCTYPE svg PUBLIC "-//W3C//DTD SVG 1.1//EN" "http://www.w3.org/Graphics/SVG/1.1/DTD/svg11.dtd"><svg t="1629970015979" class="icon" viewBox="0 0 1024 1024" version="1.1" xmlns="http://www.w3.org/2000/svg" p-id="1015" xmlns:xlink="http://www.w3.org/1999/xlink" width="200" height="200"><defs><style type="text/css"></style></defs><path d="M425.130667 851.171556H56.888889a42.666667 42.666667 0 0 1 0-85.333334h368.241778a42.666667 42.666667 0 0 1 0 85.333334z" fill="#1717C5" p-id="1016"></path><path d="M811.008 1006.08c-140.288 0-197.518222-57.230222-197.518222-197.518222s57.230222-197.518222 197.518222-197.518222 197.518222 57.230222 197.518222 197.518222-57.230222 197.518222-197.518222 197.518222z m0-309.703111c-92.216889 0-112.184889 19.968-112.184889 112.184889s19.968 112.184889 112.184889 112.184889 112.184889-19.968 112.184889-112.184889-19.968-112.184889-112.184889-112.184889z" fill="#EAC829" p-id="1017"></path><path d="M965.802667 254.464h-368.128a42.666667 42.666667 0 0 1 0-85.333333h368.128a42.666667 42.666667 0 0 1 0 85.333333zM211.740444 409.258667C71.452444 409.258667 14.222222 352.028444 14.222222 211.740444S71.452444 14.222222 211.740444 14.222222s197.518222 57.230222 197.518223 197.518222-57.230222 197.518222-197.518223 197.518223z m0-309.703111C119.466667 99.555556 99.555556 119.466667 99.555556 211.740444c0 92.273778 19.911111 112.184889 112.184888 112.184889 92.273778 0 112.184889-19.911111 112.184889-112.184889 0-92.273778-19.911111-112.184889-112.184889-112.184888z" fill="#1717C5" p-id="1018"></path></svg>